# xmcd
#
# Track frame offsets:
#	150
#	13186
#	26800
#	39753
#	54668
#	67752
#	80787
#	94268
#	107501
#	118970
#	131617
#	145075
#	158950
#	171673
#	187129
#	203194
#	215618
#	228164
#	241288
#	256556
#	270498
#	281410
#	295363
#	308666
#	321847
#	333857
#
# Disc length: 4650 seconds
#
# Revision: 0
# Processed by: cddbd v1.5.2PL0 Copyright (c) Steve Scherf et al.
# Submitted via: EasyCDDAExtractor 10.0.5.1
#
DISCID=7d12281a
DTITLE=Various Artist - New York Blues And R&B (1947-1955) - Disc D (1949-52)
DYEAR=2007
DGENRE=Blues
TTITLE0=Brownie McGhee - I'm Gonna Move Cross The River
TTITLE1=Brownie McGhee - Heart In Sorrow
TTITLE2=Brownie McGhee - Dissatisfied Blues
TTITLE3=Brownie McGhee - Diamond Ring
TTITLE4=Brownie McGhee - The Way I Feel
TTITLE5=Brownie McGhee - So Much Trouble
TTITLE6=Brownie McGhee - Gone Baby, Gone
TTITLE7=Brownie McGhee - Tell Me, Baby
TTITLE8=Brownie McGhee - Sittin' Pretty
TTITLE9=Brownie McGhee - Bottom Blues
TTITLE10=Sonny Terry - Keys To The Highway
TTITLE11=Sonny Terry - I Have Had My Fun
TTITLE12=Sonny Terry - Airplane Blues
TTITLE13=Sonny Terry - Telephone Blues
TTITLE14=Sonny Terry - Mad Man Blues
TTITLE15=Sonny Terry - Dirty Mistreater, Don't You Know
TTITLE16=Sonny Terry - Women Is Killing Me
TTITLE17=Sonny Terry - Harmonica Train
TTITLE18=Sonny Terry - Going Down Slow
TTITLE19=Sonny Terry - Man Ain't Nothin' But A Fool
TTITLE20=Sonny Terry - Baby, Let's Have Some Fun
TTITLE21=Sonny Terry - 4 O'clock Blues
TTITLE22=Sonny Terry - Lonesome Room
TTITLE23=Sonny Terry - No Love Blues
TTITLE24=Sonny Terry - Wine Headed Woman
TTITLE25=Sonny Terry - Bad Luck Blues
EXTD=
EXTT0=
EXTT1=
EXTT2=
EXTT3=
EXTT4=
EXTT5=
EXTT6=
EXTT7=
EXTT8=
EXTT9=
EXTT10=
EXTT11=
EXTT12=
EXTT13=
EXTT14=
EXTT15=
EXTT16=
EXTT17=
EXTT18=
EXTT19=
EXTT20=
EXTT21=
EXTT22=
EXTT23=
EXTT24=
EXTT25=
PLAYORDER=
